<svg width="202" height="103" viewBox="0 0 202 103" fill="none" xmlns="http://www.w3.org/2000/svg">
<path d="M7.23196 27.681C3.56184 35.8299 3.65917 35.4921 2.23731 45.0142C0.924254 53.8075 0.453719 52.7207 9.40706 61.5995C13.9029 66.0577 16.8918 69.301 16.8134 69.6363C16.7415 69.9456 15.3493 72.1677 13.7189 74.5737C8.73392 81.9303 8.96408 82.5843 17.4208 85.1013C30.069 88.866 42.1382 90.4989 56.3377 90.3676C70.4759 90.2366 73.7387 91.4329 75.7243 97.4737C77.1452 101.796 74.6349 101.568 119.345 101.42C151.593 101.313 160.563 101.093 161.599 100.38C164.279 98.5342 165.07 96.1072 164.759 90.6737C164.364 83.7479 163.781 83.8439 179.318 88.2688C184.572 89.765 186.39 90.047 187.768 89.5797C191.045 88.4682 198.625 74.4716 200.439 66.1843C200.93 63.9405 198.39 62.0154 186.183 55.3809C166.487 44.6751 166.895 44.7624 145.891 46.7517C137.919 47.5067 136.035 48.3068 131.566 52.8372C125.997 58.4812 108.381 60.4149 98.1475 56.5053C84.1771 51.1622 69.1045 32.2407 71.9865 23.6569C73.4073 19.4279 65.3578 12.0041 50.7351 4.05365C42.8575 -0.229308 34.2518 0.850116 26.1441 7.13779C21.9318 10.4042 20.513 10.9386 14.18 11.6456C11.4245 11.8624 8.59867 24.6205 7.23196 27.681Z" stroke="#DADADA" stroke-width="4" stroke-linejoin="round"/>
</svg>
