<?xml version="1.0" encoding="UTF-8"?>
<svg id="Capa_2" data-name="Capa 2" xmlns="http://www.w3.org/2000/svg" xmlns:xlink="http://www.w3.org/1999/xlink" viewBox="0 0 1904.62 1109.16">
  <defs>
    <style>
      .cls-1 {
        fill: #fff;
      }

      .cls-2 {
        stroke-miterlimit: 15.12;
        stroke-width: 15px;
      }

      .cls-2, .cls-3 {
        fill: none;
      }

      .cls-2, .cls-4 {
        stroke: #000;
      }

      .cls-4 {
        fill: url(#pattern4599);
        stroke-miterlimit: 15.12;
        stroke-width: 1.2px;
      }
    </style>
    <pattern id="pattern4599" x="0" y="0" width="2000" height="1250" patternTransform="translate(-18975.99 -4756.09) rotate(46.83) scale(9.38 -9.38)" patternUnits="userSpaceOnUse" viewBox="0 0 2000 1250">
      <rect class="cls-3" width="2000" height="1250"/>
    </pattern>
  </defs>
  <g id="Capa_1-2" data-name="Capa 1">
    <g>
      <path class="cls-2" d="m1795.59,48.69c-34.52,22.38-103.57,67.14-144.76,93.81-41.19,26.67-54.52,35.24-70,46.43-15.48,11.19-33.09,25-94.05,75.48-60.95,50.48-165.24,137.62-218.81,182.6-53.58,44.98-56.45,47.8-58.56,50.24s-3.46,4.5-4.26,6.48c-.8,1.98-1.05,3.87-.99,5.64.06,1.77.44,3.41,1.24,5.05s2.02,3.28,3.96,5.3,4.59,4.42,6.73,6.61,3.79,4.17,4.9,5.83c1.12,1.66,1.7,3.01,2.02,4.34.32,1.33.36,2.63.1,4.35s-.82,3.86-1.69,5.85c-.86,1.99-2.02,3.84-3.28,5.33-1.25,1.5-2.6,2.65-4.56,3.84-1.96,1.19-4.53,2.41-7.81,3.48-3.28,1.07-7.28,2-11.47,2.74-4.19.74-8.57,1.28-12.33,1.69s-6.92.67-11.47.77c-4.55.1-10.51.04-16.93.16s-13.33.42-18.3.92-8.01,1.22-11.07,2.05c-3.07.83-6.16,1.79-10.18,3.27-4.02,1.49-8.96,3.51-14.11,5.86-5.15,2.35-10.51,5.03-16.04,8.01s-11.25,6.25-17.5,10.09-13.04,8.24-19.55,12.26-12.77,7.65-18.87,11.25c-6.1,3.6-12.05,7.17-17.62,10.51s-10.74,6.43-15.65,9.3c-4.91,2.87-9.55,5.51-14.32,8.22s-9.65,5.49-14.44,8.31c-4.8,2.82-9.51,5.68-14.27,8.33s-9.55,5.09-14.23,7.41-9.22,4.5-12.8,6.1-6.19,2.61-8.14,3.55-3.26,1.8-4.51,2.66c-1.25.86-2.45,1.73-3.57,2.75-1.12,1.02-2.15,2.2-2.71,3.33-.57,1.13-.67,2.2-.63,4.43.04,2.23.23,5.62.3,9.08.07,3.46.03,7-.12,10.76-.15,3.77-.4,7.77-.81,11.34-.41,3.57-.98,6.72-1.63,9.22s-1.4,4.38-2.38,6.59c-.98,2.2-2.2,4.73-3.81,7.41s-3.6,5.51-5.06,7.56-2.38,3.33-3.91,5.05c-1.53,1.71-3.65,3.86-6.04,6.07-2.39,2.21-5.04,4.48-7.84,6.63-2.8,2.15-5.75,4.17-8.69,6.02s-5.89,3.54-9.11,5.03c-3.22,1.49-6.71,2.8-10.56,3.89-3.85,1.09-8.06,1.98-12.3,2.44-4.24.46-8.51.51-12.32.41-3.8-.1-7.14-.34-10.35-.87-3.21-.54-6.31-1.37-9.49-2.26s-6.46-1.85-9.64-2.68c-3.18-.83-6.28-1.55-9.58-2.11-3.3-.57-6.82-.98-10.09-1.13-3.27-.15-6.31-.03-9.49.39-3.18.42-6.52,1.13-9.58,1.99-3.07.86-5.86,1.87-8.75,3.07-2.89,1.19-5.86,2.56-8.72,4.08-2.86,1.52-5.6,3.18-8.49,5.15-2.89,1.97-5.94,4.24-9.32,6.64-3.38,2.4-7.08,4.92-10.32,7.37-3.24,2.44-6.02,4.8-8.59,7.41-2.57,2.61-4.92,5.47-7.07,8.59-2.15,3.11-4.08,6.48-5.51,9.55-1.43,3.07-2.36,5.85-3.16,8.88-.8,3.03-1.47,6.31-2.1,9.72-.63,3.41-1.22,6.94-1.81,9.85s-1.18,5.18-1.81,7.2-1.3,3.79-2.19,5.35c-.88,1.56-1.98,2.9-3.41,4.55-1.43,1.64-3.2,3.58-5.43,5.39-2.23,1.81-4.92,3.49-8.21,5.18s-7.15,3.37-11.2,5.05c-4.04,1.68-8.25,3.37-16.74,6.59s-21.27,7.99-29.03,10.85c-7.76,2.86-10.5,3.81-13.03,4.41s-4.85.83-7.8.92c-2.95.09-6.52.03-9.79-.09-3.27-.12-6.25-.3-8.48-.6-2.23-.3-3.72-.71-5.45-1.34s-3.69-1.46-5.65-2.41c-1.96-.95-3.93-2.02-6.19-3.48-2.26-1.46-4.82-3.3-7.07-5.31-2.25-2.01-4.18-4.18-6.12-6.44s-3.87-4.61-5.77-6.87c-1.9-2.26-3.78-4.43-5.64-6.37-1.86-1.93-3.71-3.63-5.43-5.1-1.73-1.47-3.33-2.72-5.21-4.02-1.87-1.29-4.02-2.63-6.09-3.72-2.07-1.09-4.06-1.92-6.01-2.6-1.95-.68-3.85-1.22-6.06-1.59-2.2-.37-4.7-.58-6.99-.65-2.29-.07-4.38-.02-6.85.34s-5.33,1.01-8.39,1.8c-3.07.79-6.34,1.71-9.26,2.54-2.92.83-5.48,1.58-8.27,2.34s-5.83,1.53-9.76,2.34-8.75,1.64-13.57,2.23c-4.82.6-9.64.95-15.74,1.07s-13.48,0-21.1-.03c-7.62-.03-15.48.03-20.65.21s-7.68.48-11.05.93-7.63,1.07-12.24,1.97-9.58,2.08-14.71,3.42c-5.13,1.35-10.44,2.86-16.33,4.71-5.89,1.85-12.37,4.04-18.81,6.36s-12.84,4.76-19.36,7.24c-6.52,2.48-13.17,5.01-19.99,7.74-6.82,2.74-13.81,5.68-38.21,16.37-24.4,10.69-66.22,29.12-100.22,44.05s-60.19,26.36-73.76,32.37c-13.57,6.01-14.52,6.61-15.8,7.53-1.28.92-2.89,2.17-4.55,3.69-1.67,1.52-3.39,3.3-5.09,5.21s-3.36,3.93-4.88,6.04c-1.52,2.11-2.89,4.32-4.05,6.76-1.16,2.44-2.11,5.12-2.71,7.23-.6,2.11-.83,3.66-.95,6.7-.12,3.04-.12,7.56.48,11.64s1.79,7.71,3.04,10.77,2.56,5.57,4.17,7.98c1.61,2.41,3.51,4.73,5.65,6.9,2.14,2.17,4.52,4.2,7.2,6.04,2.68,1.85,5.65,3.51,8.1,4.73s4.35,1.99,7.5,2.47c3.15.48,7.56.65,11.7.65s8.01-.18,11.87-.65c3.87-.48,7.74-1.25,11.43-2.17s7.2-1.99,10.83-3.45c3.63-1.46,7.38-3.3,11.16-5.48,3.78-2.17,7.59-4.67,10.7-7.01,3.11-2.34,5.52-4.52,7.99-6.92,2.47-2.4,4.99-5.01,7.73-8.12s5.68-6.73,8.33-10.27c2.65-3.54,5.01-6.99,7.11-10.1,2.1-3.11,3.96-5.89,5.93-8.71,1.98-2.82,4.08-5.68,6.48-8.5,2.4-2.82,5.09-5.6,7.46-8.13,2.37-2.53,4.4-4.81,7.06-7.49s5.93-5.78,9.56-8.94c3.63-3.15,7.62-6.37,11.79-9.49,4.17-3.13,8.51-6.16,13.39-9.14,4.88-2.98,10.3-5.89,16.52-8.87s13.24-6.01,19.79-8.39c6.55-2.38,12.62-4.11,18.45-5.51s11.43-2.47,16.64-3.33c5.21-.86,10.03-1.52,13.99-1.87,3.96-.36,7.05-.42,11.64-.45,4.58-.03,10.65-.03,15.03.06,4.38.09,7.05.27,10.06.63,3.01.36,6.34.89,10.12,1.46,3.78.57,8.01,1.16,11.73,1.67,3.72.51,6.93.92,10.51,1.13,3.57.21,7.5.21,11.52.12,4.02-.09,8.12-.27,12.8-.65,4.67-.39,9.91-.98,14.37-1.7s8.15-1.55,11.67-2.59c3.51-1.04,6.85-2.29,11.07-3.81,4.23-1.52,9.35-3.3,13.51-4.58,4.17-1.28,7.38-2.05,10.06-2.47,2.68-.42,4.82-.48,7.29-.27,2.47.21,5.27.68,7.35,1.28,2.08.6,3.45,1.31,5.51,2.59s4.79,3.13,7.23,5.35c2.44,2.23,4.58,4.84,6.56,7.38,1.98,2.55,3.79,5.03,5.51,7.3,1.73,2.27,3.37,4.34,5.18,6.33,1.81,2,3.79,3.94,6.02,5.75,2.23,1.81,4.71,3.49,7.37,5.07s5.47,3.05,7.87,4.23c2.4,1.18,4.38,2.06,6.48,2.65,2.1.59,4.34.88,7.34,1.14,3.01.25,6.8.46,10.33.57,3.54.11,6.82.11,10.48-.19,3.66-.29,7.7-.88,12.25-1.85s9.6-2.31,15.15-4c5.56-1.68,11.62-3.7,17.51-5.89,5.89-2.19,11.62-4.55,17.05-6.9,5.43-2.36,10.56-4.71,15.45-7.16,4.88-2.44,9.51-4.97,14.14-7.7,4.63-2.74,9.26-5.68,13.38-8.54,4.12-2.86,7.74-5.64,11.39-8.69s7.33-6.38,11.85-10.66c4.52-4.28,9.88-9.52,14.82-14.46s9.46-9.58,14.64-14.88c5.18-5.3,11.01-11.25,16.85-16.85s11.67-10.83,17.08-15.65,10.42-9.23,14.76-12.74c4.35-3.51,8.04-6.13,12.44-9.11,4.4-2.98,9.52-6.31,13.63-8.69s7.2-3.81,10.65-5.36c3.45-1.55,7.26-3.21,11.61-5s9.23-3.69,14.88-5.71,12.08-4.17,18.57-6.19c6.49-2.02,13.04-3.93,19.46-6.25s12.74-5.06,18.75-8.04c6.01-2.98,11.73-6.19,16.91-9.23,5.18-3.04,9.84-5.9,14.98-9.47s10.79-7.87,16.01-12.04,10.02-8.21,14.44-12.21,8.46-7.95,12.8-12.75,8.97-10.44,12.85-15.6,7.03-9.85,10.15-14.46,6.21-9.13,9.49-13.47,6.73-8.51,10.83-13.27,8.87-10.12,13.57-14.94,9.35-9.11,13.51-12.68c4.17-3.57,7.86-6.43,12.26-9.7s9.52-6.96,15.06-10.65c5.54-3.69,11.49-7.38,18.69-11.43,7.2-4.05,15.65-8.45,23.98-12.45,8.33-3.99,16.52-7.58,24.2-10.59s14.83-5.45,22.24-7.68c7.41-2.23,15.07-4.25,23.53-6.19,8.46-1.94,17.72-3.79,26.05-5.22,8.33-1.43,15.74-2.44,21.59-3.07,5.85-.63,10.14-.88,13.51-1.18,3.37-.29,5.81-.63,8.17-1.35s4.63-1.81,6.65-2.82c2.02-1.01,3.79-1.94,5.6-3.37,1.81-1.43,3.66-3.37,5.72-5.81s4.34-5.39,6.19-8.21,3.28-5.51,4.34-7.95c1.05-2.44,1.73-4.63,2.36-7.15s1.22-5.39,1.94-8.21c.72-2.82,1.56-5.6,2.65-8.84,1.09-3.24,2.44-6.94,4.04-10.4s3.45-6.65,5.64-9.77c2.19-3.11,4.71-6.15,7.16-8.71s4.8-4.67,7.83-6.94,6.73-4.71,14.06-9.6,18.27-12.21,24.92-16.63,9.01-5.93,12.25-7.49c3.24-1.56,7.37-3.16,10.73-4.46,3.37-1.3,5.98-2.31,9.72-2.9,3.75-.59,8.63-.76,14.06-.63,5.43.13,11.41.55,20.49,1.63,9.08,1.08,21.26,2.82,32.89,4.35,11.63,1.52,22.7,2.83,33.95,4.14s22.68,2.62,32.92,3.33c10.24.71,19.29.83,27.02.77,7.74-.06,14.17-.3,21.19-1.13,7.02-.83,14.64-2.26,21.9-3.99,7.26-1.73,14.17-3.75,20.86-5.98,6.7-2.23,13.18-4.67,19.64-7.35s12.89-5.6,19.61-9.14c6.73-3.54,13.75-7.71,21.61-12.83s16.55-11.19,25.39-17.44c8.84-6.25,17.83-12.68,25.89-18.57s15.21-11.25,21.99-16.61,13.21-10.71,19.23-15.95c6.01-5.24,11.61-10.36,17.14-15.65s11.01-10.77,17.02-17.38c6.01-6.61,12.56-14.35,18.63-21.96s11.67-15.12,17.32-23.27c5.65-8.15,11.37-16.96,15.99-24.4s8.14-13.48,12.01-20.81,8.08-15.91,11.95-24.58,7.41-17.43,10.44-25.42c3.03-8,5.56-15.24,8.33-24.24s5.81-19.78,8.84-30.73,6.06-22.05,8.66-31.65c2.6-9.59,4.77-17.67,6.92-25.69,2.16-8.03,4.3-16,5.73-21.83s2.14-9.52,2.32-13.09-.18-7.02-1.55-10.83c-1.37-3.81-3.75-7.98-6.07-11.19s-4.58-5.48-7.14-7.32-5.42-3.27-8.99-4.11c-3.57-.83-7.86-1.07-11.73-.6-3.87.48-7.32,1.67-12.5,4.88-5.18,3.21-12.08,8.45-15.54,11.07q-3.45,2.62-37.98,25h0Z"/>
      <rect class="cls-1" x="1526.56" y="174.64" width="35.45" height="93.58" transform="translate(266.55 1116.54) rotate(-43.17)"/>
      <polygon class="cls-4" points="1525.19 175.18 1589.22 243.42 1563.37 267.67 1499.34 199.43 1525.19 175.18"/>
    </g>
  </g>
</svg>