<?xml version="1.0" encoding="UTF-8"?>
<svg id="Capa_2" data-name="Capa 2" xmlns="http://www.w3.org/2000/svg" viewBox="0 0 1201.31 870.37">
  <defs>
    <style>
      .cls-1 {
        stroke-width: 10px;
      }

      .cls-1, .cls-2 {
        stroke: #000;
      }

      .cls-1, .cls-2, .cls-3, .cls-4 {
        fill: none;
        stroke-linejoin: round;
      }

      .cls-2 {
        stroke-width: 2px;
      }

      .cls-3 {
        stroke-width: 4px;
      }

      .cls-3, .cls-4 {
        stroke: #fff;
      }

      .cls-4 {
        stroke-width: 12px;
      }
    </style>
  </defs>
  <g id="svg2383">
    <g id="layer1">
      <path id="path3180" class="cls-3" d="m1144.51,855.6c-7.03.2-43.77-2.61-49.87-2.92-4.27-.21-58.77-8.37-58.77-8.37-42.37,1.1-84.73,3.07-127.11,3.29-127.3.67-254.68-2.11-381.94-.6-32.41.38-64.64,5.73-97.05,6.28-51.97.88-86.64,5.07-130.1,4.97"/>
      <path id="path3182" class="cls-4" d="m562.25,864.35c-136.78.32-268.29-2.92-398.09-3.29-76.62-.22-85.72-85.01-43.37-107.97,47.58-25.8,92.33-47.71,138.78-74.77,34.88-20.33,37.63-75.93-5.38-97.8-45.51-23.14-73.64-38.24-117.54-63.11-10.71-6.07-24.85-22.14-29.01-33.8C72.16,384.31,42.82,293.19,9.23,192.59c-10.24-30.66,4.2-58.92,38.28-70.59,26.23-8.98,37.89-13.34,66.1-22.43,25.28-8.15,57.31,13.07,67.89,40.38,22.12,57.09,37.86,113.8,56.23,170.18,4.19,12.87,21.87,28.94,32.6,28.71,8.5-.18,24.79-7.82,26.32-18.24,13.4-91,26.46-181.95,37.98-272.77,2.35-18.51,21.59-33.11,34.99-38.88,12.52-5.39,31.11-2.79,43.07,2.99,11.97,5.78,23.61,18.36,28.71,31.7,7.26,18.96,6.72,40.73,14.36,59.82,9.91,24.77,21.93,50.3,40.38,69.99,12.68,13.53,34.91,27.75,49,44.12,8.6,9.99,25.89,28.49,19.19,51.59-7.92,27.3-26.65,80.89-38.58,137.58-2.97,14.11,5.22,32.19,16.15,39.48,13,8.66,37.8,8.14,54.43,3.29,31.22-9.11,63.32-21.27,91.52-39.78,24.04-15.78,44.03-35.57,63.41-56.83,14.93-16.38,28.23-35.29,37.69-55.63,27.63-59.42,49.61-120.44,74.17-181.85,7.34-18.36,19.97-41.68,35.89-51.14,9.66-5.74,28.6-14.3,39.48-14.36,44.18-.21,68.91-.51,113.65.3,11.53.21,32.65,13.17,37.98,23.33,23.64,44.96,44.36,80.84,69.39,123.82,6.75,11.59,7.36,38.1-3.29,50.55-53.07,62.03-92.2,110.69-147.15,171.98-15.67,17.48-25.56,48.62-13.16,67.59,63.91,97.83,116.67,189.3,189.62,288.62,24.49,33.34-.12,83.23-40.98,83.45-197.4,1.05-382.54,4.31-582.33,4.79Z"/>
      <path id="path2406" class="cls-1" d="m562.25,864.35c-136.78.32-268.29-2.92-398.09-3.29-76.62-.22-85.72-85.01-43.37-107.97,47.58-25.8,92.33-47.71,138.78-74.77,34.88-20.33,37.63-75.93-5.38-97.8-45.51-23.14-73.64-38.24-117.54-63.11-10.71-6.07-24.85-22.14-29.01-33.8C72.16,384.31,42.82,293.19,9.23,192.59c-10.24-30.66,4.2-58.92,38.28-70.59,26.23-8.98,37.89-13.34,66.1-22.43,25.28-8.15,57.31,13.07,67.89,40.38,22.12,57.09,37.86,113.8,56.23,170.18,4.19,12.87,21.87,28.94,32.6,28.71,8.5-.18,24.79-7.82,26.32-18.24,13.4-91,26.46-181.95,37.98-272.77,2.35-18.51,21.59-33.11,34.99-38.88,12.52-5.39,31.11-2.79,43.07,2.99,11.97,5.78,23.61,18.36,28.71,31.7,7.26,18.96,6.72,40.73,14.36,59.82,9.91,24.77,21.93,50.3,40.38,69.99,12.68,13.53,34.91,27.75,49,44.12,8.6,9.99,25.89,28.49,19.19,51.59-7.92,27.3-26.65,80.89-38.58,137.58-2.97,14.11,5.22,32.19,16.15,39.48,13,8.66,37.8,8.14,54.43,3.29,31.22-9.11,63.32-21.27,91.52-39.78,24.04-15.78,44.03-35.57,63.41-56.83,14.93-16.38,28.23-35.29,37.69-55.63,27.63-59.42,49.61-120.44,74.17-181.85,7.34-18.36,19.97-41.68,35.89-51.14,9.66-5.74,28.6-14.3,39.48-14.36,44.18-.21,68.91-.51,113.65.3,11.53.21,32.65,13.17,37.98,23.33,23.64,44.96,44.36,80.84,69.39,123.82,6.75,11.59,7.36,38.1-3.29,50.55-53.07,62.03-92.2,110.69-147.15,171.98-15.67,17.48-25.56,48.62-13.16,67.59,63.91,97.83,116.67,189.3,189.62,288.62,24.49,33.34-.12,83.23-40.98,83.45-197.4,1.05-382.54,4.31-582.33,4.79Z"/>
      <path id="path3178" class="cls-2" d="m1144.51,855.6c-7.03.2-43.77-2.61-49.87-2.92-4.27-.21-58.77-8.37-58.77-8.37-42.37,1.1-84.73,3.07-127.11,3.29-127.3.67-254.68-2.11-381.94-.6-32.41.38-64.64,5.73-97.05,6.28-51.97.88-86.64,5.07-130.1,4.97"/>
    </g>
  </g>
</svg>