<?xml version="1.0" encoding="UTF-8"?>
<svg id="Capa_2" data-name="Capa 2" xmlns="http://www.w3.org/2000/svg" xmlns:xlink="http://www.w3.org/1999/xlink" viewBox="0 0 692.9 429.87">
  <defs>
    <style>
      .cls-1 {
        fill: #fff;
      }

      .cls-1, .cls-2, .cls-3 {
        stroke: #000;
      }

      .cls-1, .cls-3 {
        stroke-linecap: square;
        stroke-miterlimit: 10.63;
        stroke-width: 1.33px;
      }

      .cls-2 {
        stroke-linejoin: round;
        stroke-width: 5.59px;
      }

      .cls-2, .cls-4 {
        fill: none;
      }

      .cls-3 {
        fill: url(#pattern3);
      }
    </style>
    <pattern id="pattern3" x="0" y="0" width="755.49" height="507.11" patternTransform="translate(174.29 -23234.72) rotate(-7.44) scale(5.37 -3.48)" patternUnits="userSpaceOnUse" viewBox="0 0 755.49 507.11">
      <rect class="cls-4" width="755.49" height="507.11"/>
    </pattern>
  </defs>
  <g id="svg1">
    <g id="layer1">
      <path id="path1" class="cls-2" d="m64.03,409.25L29.83,202.41l-.69-2-1.32-1-1.79-.53-2.85-.16-4.06-.05-2.9-.16-2.11-.42-1.95-.74-1.95-1.74-1.37-2.06-.9-2.9-.47-3.22-.9-5.91-1.32-8.81-.58-6.12.32-5.33.79-5.22,1.42-4.11,1.63-3.9,1.79-3.43,1.9-3.06,2.53-3.64,2.69-3.16,2.79-2.58,3.43-2.64,3.43-2.64,5.06-3.43,111.09-68.91,4.65-2.78,4.7-2.54,6.04-3.21,4.85-2.54,5.82-2.68,5.29-2.16,5.29-2.24,5.37-1.94,6.11-2.31,6.86-2.24,7.01-2.09,6.11-1.64,6.04-1.19,6.19-.89,7.08-.82,7.75-.45h8.13l6.63-.03,6.43.21,5.06.95,5.11,1.16,5.69,1.42,7.12,2.06,5.33,1.74,6.49,2.32,5.43,2.37,4.85,2.69,4.06,2.74,2.69,1.85,1.37,1.16,3.01-3.22,1.9-1.79,2.06-1.11,2.06-.58,1.85-.05,2.27.47,2.21.84,2.37,1.9,1.95,1.48,1.85.32,1.74.21,1.79-.11,3.16-.69,3.43-1.05,7.86-2.27,6.59-2.11,4.64-1.42,2.95-1.11,2.58-1.16,2.64-1.53,2.69-1.74,3.01-2.27,3.11-2.32,3.11-1.79,3.74-1.48,4.27-1.63,4.01-1.32,3.64-1.05,4.75-1.37,3.48-.69,3.53-.74,4.27-.74,3.32-.47,3.74-.9,3.37-1,2.79-1.16,2.85-1.63,2.58-1.79,2.11-1.27,2.06-1.05,1.95-.69,1.9-.32,1.58-.05,2.27.42,1.16.9,1.32,1.37,1.74,2.06,1.53,2.37,1.74,2.21,2.27,2.58,1.69,1.42,2.43.95,1.9.21,2.21.21h1.63l1.85-.16,2.16-.37,1.85-.74,2.06-1,2.58-1.48,3.01-1.85,3.48-2.06,3.32-1.74,3.06-1.53,2.43-1.05,2.37-.84,2.74-.9,2.27-.26,4.06-.42,4.59-.05,4.17-.11,36.64-.42,2.69.05,2.32.53,2,.69,1.42.79,2.16,1.21,1.85,1.42,2.48,2.21,2.27,2,4.69,5.59,1.63,2.37,1.74,2.43,1.95,2.74,1.95,2.11,2.16,2.21,1.85,1.58,2.69,1.9,2.21,1.16,2.85,1.21,3.01.11h3.37l2.74-.21,2.58-.11,2.74-.53,2.58-1.21,3.22-1.42,5.48-2.43,5.11-2.27,3.64-1.53,3.48-1.42,3.85-1.58,5.48-1.85,4.69-1,4.06-.63,4.01-.63,3.11-.05,4.8.74,4.27.69,3.53,1.32,3.32,1.74,2.74,1.85,1.85,1.32,2.21,1.79,1.69,1.69,2.06,2.06,2,2.37,2.48,3.69,1.95,2.95,1.53,2.74,1.53,3.22.79,3.11.42,2.9.42,3.32.05,5.64-.26,7.7-1.11,4.06-.9,2.53-1.16,2.64-1.48,2.74-2.16,4.17-2.32,3.22-2.53,2.43-3.06,2.9-2.9,2.58-3.48,2.43-3.48,2.27-5.06,2.48-6.01,2.32-4.96,1.42-5.01.42-4.53.05-4.96-.42-4.75-.74-5.33-1.53-6.33-2.69-6.22-2.9-6.64-3.22-6.54-3.85-5.27-3.43-4.96-3.53-4.11-3.11-5.96-4.69-7.33-5.8-6.85-5.64-6.38-5.06-5.8-4.43-6.27-4.64-5.8-4.64-5.59-3.95-5.01-3.32-4.8-2.95-4.64-2.9-3.8-1.95-2.32-.79-1.69-.37s-.95.11-1.21.16c-.26.05-1.32.63-1.32.63l-1.85,1.58-3.22,3.64-5.11,6.33-4.9,6.64-6.49,9.07-4.69,6.64-2.43,3.48-2.69,2.64-1.79,1.9-2.06,1.9-2.06,1.53-1.9,1.53-2.11,1.63-1.79,1.32-3.32,1.58-3.37,1-3.37.95-3.27.63-10.49.05-24.78-.53-6.54-.05-3.85.58-4.27.95-4.11,1.79-2.53,1.53-3.01,2.06-2.79,1.85-2.64,2-2.64,2-2.11,2.06-2.16,2.21-1.16,1.69-1.69,2.32-1.37,2.37-1.05,1.69-1,2-1.27,2.58-1.21,3.53-.69,3.16-.42,3.43-.32,2.53.16,36.7.26,3.27.42,2.58.47,2.06.79,2.06,1.53,3.53,2.95,6.17,1.53,2.79,1.58,2.85.53,1.21.26,1.16.05.74v1.42l-.58,1.11-1,1.11-1.95,1.74-7.07,5.43-10.23,6.91-12.07,7.43-15.18,8.75-7.43,4.17-6.43,3.27-4.69,2.37-2.79,2.43-2.21,2.85-1.21,2.16-.53,2.06-.84,3.27-.11,2.43-.05,4.59v3.85l.69,6.12.84,5.33.63,2.95.37,3.53.32,3.59.16,3.48-.05,3.95-.11,4.8-1.05,4.59-1.05,4.27-1.21,3.74-1.32,3.06-2.21,3.27-1.48,2.32-2.06,2.48-2.53,2.58-2.79,2.32-3.11,2.11-3.64,1.85-4.48,1.42-4.59,1.05-6.49,1-4.8.69-5.64.74-6.43.9-6.43,1.27-8.07,1.42-6.91,1.11-10.86,1.74-8.07,1.48-9.86,1.95-11.7,2-6.27.79-5.59.69-3.06.42-1.42.74-.74.79-.37.69-.37.9.26,1.32.42.79.69.95.69.79.74,1.05,1.79,2.9,1.11,2,1.11,1.9.58,1.21.58,2.69.32,3.48,2.21,15.13.9,5.48v3.8l.11,3.59-.16,3.85-.16,1.74-.53,1.48-.74.69-1.27,1.16-1.58,1-1.74.69-12.34,3.95-7.17,2.16-5.54,1.48-7.8,1.79-10.91,1.95-13.44,2.37-10.39,2-11.55,1.85-12.18,2.27-4.59,1.11-3.27.16-3.16-.16-2.43-.26-3.01-1.16-2.37-1.69-1.85-1.9-1.85-2.53-1.53-2.95-1.16-3.69-.49-3.48Z"/>
      <g id="g3">
        <rect id="rect1-1" class="cls-1" x="1.68" y="261.38" width="54.13" height="15.58" transform="translate(-34.6 5.99) rotate(-7.44)"/>
        <polygon id="rect1" class="cls-3" points=".75 264.93 54.42 257.92 56.44 273.36 2.76 280.37 .75 264.93"/>
      </g>
    </g>
  </g>
</svg>