<?xml version="1.0" encoding="UTF-8"?>
<svg id="Capa_2" data-name="Capa 2" xmlns="http://www.w3.org/2000/svg" xmlns:xlink="http://www.w3.org/1999/xlink" viewBox="0 0 1428.54 1538.29">
  <defs>
    <style>
      .cls-1 {
        fill: url(#pattern4264-8);
        stroke-linecap: round;
        stroke-linejoin: round;
        stroke-width: .71px;
      }

      .cls-1, .cls-2, .cls-3 {
        stroke: #000;
      }

      .cls-2 {
        stroke-width: 10px;
      }

      .cls-2, .cls-4, .cls-3 {
        fill: none;
      }

      .cls-2, .cls-3 {
        stroke-miterlimit: 15.12;
      }

      .cls-5 {
        clip-path: url(#clippath);
      }

      .cls-3 {
        stroke-width: 5px;
      }
    </style>
    <clipPath id="clippath">
      <rect class="cls-4" x="382.23" y="76.74" width="919.39" height="1384.82" transform="translate(-134.55 180.15) rotate(-11.32)"/>
    </clipPath>
    <pattern id="pattern4264-8" x="0" y="0" width="1300" height="500" patternTransform="translate(-7590.29 -14520.1) rotate(-145.33) scale(.71)" patternUnits="userSpaceOnUse" viewBox="0 0 1300 500">
      <rect class="cls-4" width="1300" height="500"/>
    </pattern>
  </defs>
  <g id="Capa_1-2" data-name="Capa 1">
    <g>
      <path class="cls-2" d="m734.86,847.54c-29.16-15.63-87.49-46.9-134.73-72.28-47.24-25.38-83.37-44.87-102.39-55.2-19.02-10.33-20.93-11.5-22.87-12.91-1.94-1.41-3.91-3.06-5.68-4.87s-3.33-3.77-4.47-5.49-1.85-3.17-2.44-5.36c-.59-2.18-1.06-5.08-1.04-7.52.02-2.44.54-4.43,1.42-6.37s2.11-3.83,3.97-5.87c1.86-2.04,4.33-4.22,7.77-6.88,3.44-2.66,7.85-5.81,12.02-8.81,4.17-2.99,8.11-5.82,10.89-8.08s4.38-3.92,5.88-5.77c1.51-1.85,2.92-3.87,4.23-6.21s2.52-5.01,3.43-8.32c.91-3.31,1.54-7.27,1.57-15.7.03-8.43-.53-21.33-.62-29.02-.09-7.68.29-10.14,1.15-13.33.86-3.19,2.2-7.11,3.76-10.63s3.35-6.62,5.07-9.07c1.72-2.45,3.38-4.24,5.25-6.07,1.87-1.83,3.94-3.7,6.53-5.88,2.6-2.19,5.72-4.69,9.49-7.16s8.21-4.9,12.44-7.06,8.27-4.04,13.14-6.14c4.86-2.09,10.55-4.4,16.23-6.32,5.67-1.92,11.33-3.45,16.53-4.57,5.2-1.12,9.94-1.84,19.08-2.53s22.7-1.33,31.9-1.44,14.04.29,18.44.92,8.37,1.49,13.28,2.91,10.76,3.4,17.36,6c6.6,2.6,13.94,5.83,44.57,21.73,30.63,15.9,84.56,44.47,113.83,59.87,29.28,15.4,33.9,17.62,37.76,19.35,3.86,1.74,6.94,2.99,10.73,4,3.79,1.01,8.29,1.79,12.03,2.3s6.73.75,10,.63,6.83-.62,10.08-1.16c3.26-.54,6.21-1.13,9.91-2.47,3.7-1.33,8.15-3.41,12.7-5.88,4.55-2.47,9.21-5.33,14.2-8.56,5-3.23,10.34-6.83,15.18-10.21,4.84-3.37,9.19-6.52,12.85-8.78,3.67-2.26,6.65-3.62,10.09-4.8s7.33-2.16,12.94-2.71,12.93-.65,18.39-.36,9.06.99,12.84,2.33,7.72,3.33,12.13,6.26c4.4,2.93,9.26,6.79,14.4,11.15,5.14,4.36,10.57,9.21,15,12.88,4.43,3.67,7.86,6.16,12.16,8.61s9.45,4.88,14.11,6.63c4.66,1.76,8.81,2.85,12.82,3.38,4.01.53,7.88.5,12.37.18,4.49-.32,9.58-.94,14.72-2.09,5.14-1.15,10.31-2.84,15.74-4.99,5.43-2.15,11.1-4.75,16.13-7.27,5.03-2.52,9.4-4.95,13.6-7.85,4.21-2.9,8.25-6.28,11.93-9.64s7.01-6.71,9.8-10.66c2.8-3.95,5.06-8.51,6.72-12.53,1.66-4.03,2.72-7.52,3.47-10.32s1.21-4.9,1.17-9.07c-.04-4.17-.58-10.4-1.16-14.58-.58-4.18-1.2-6.3-2.67-8.83-1.47-2.53-3.79-5.48-6.57-8.11-2.78-2.63-6.03-4.95-9.23-6.7-3.2-1.75-6.34-2.94-9.64-3.68s-6.77-1.02-10.43-.94c-3.66.08-7.51.53-11.44,1.4s-7.93,2.15-13.13,3.1-11.62,1.55-18.34,1.6-13.78-.45-20.78-1.22c-7-.77-13.95-1.81-24.55-3.93-10.6-2.12-24.84-5.32-35.38-7.56-10.54-2.24-17.38-3.53-26.83-4.53-9.45-1-21.51-1.73-29.21-2.08-7.7-.36-11.03-.35-43.83,1.7-32.8,2.05-95.07,6.13-131.86,8.21-36.79,2.08-48.11,2.16-57.14,1.92-9.03-.25-15.79-.82-22.1-1.62-6.32-.8-12.19-1.82-18.38-3.25s-12.7-3.26-19.97-5.87c-7.28-2.61-15.33-5.99-23.38-9.19-8.05-3.2-16.09-6.23-23.73-9-7.64-2.77-14.89-5.29-21.1-7.34-6.22-2.05-11.4-3.64-18.26-5.34-6.86-1.7-15.39-3.51-22.76-4.78-7.38-1.26-13.6-1.97-21.19-2.6s-16.55-1.18-29.17-.98c-12.62.19-28.91,1.12-40.19,1.97-11.28.85-17.57,1.63-26.15,3.01-8.58,1.38-19.47,3.35-31.34,5.89-11.87,2.55-24.74,5.66-36.52,8.98-11.79,3.32-22.49,6.83-38.84,12.97-16.35,6.14-38.35,14.92-62.57,24.79-24.22,9.87-50.66,20.85-68.34,28.08-17.68,7.24-26.6,10.74-38.26,15.97-11.66,5.23-26.04,12.19-44.3,21.49-18.26,9.3-40.38,20.94-58.94,31.09-18.56,10.15-33.56,18.82-42.36,24.39-8.8,5.56-11.4,8.02-13.4,10.25-2,2.23-3.4,4.22-4.2,6.25-.81,2.03-1.02,4.1-.78,6.01.24,1.91.94,3.65,2.73,5.83s4.67,4.81,9.8,8.3c5.13,3.49,12.5,7.83,17.36,10.53,4.86,2.7,7.22,3.74,10.02,5.34,2.8,1.6,6.04,3.75,8.9,6.31,2.86,2.56,5.33,5.54,7.17,8.38,1.84,2.84,3.04,5.53,3.87,8.63.84,3.11,1.31,6.63,1.19,10.17-.12,3.54-.82,7.11-1.96,10.71-1.15,3.6-2.73,7.25-4.71,10.48s-4.36,6.07-7.38,8.39c-3.03,2.33-6.7,4.16-17.33,5.43-10.63,1.27-28.2,1.99-38.16,2.75-9.96.76-12.31,1.57-15.18,2.99s-6.24,3.46-9.31,5.66c-3.07,2.2-5.84,4.57-10.63,11.55s-11.61,18.56-15.13,24.86c-3.52,6.3-3.75,7.32-3.62,8.51.14,1.19.63,2.54,1.69,3.76,1.06,1.23,2.68,2.32,4.37,3.21s3.44,1.56,4.95,2.4c1.51.83,2.77,1.83,3.76,2.8.99.97,1.71,1.93,2.16,3.55.45,1.62.63,3.91.55,6.55s-.41,5.63-1.62,11.2c-1.21,5.57-3.31,13.72-4.91,20.07s-2.7,10.89-3.39,15.06c-.69,4.17-.96,7.97-.98,10.3-.02,2.32.23,3.17.81,4.39.58,1.22,1.51,2.82,2.66,4.09,1.15,1.27,2.53,2.2,4.35,2.78,1.82.58,4.1.82,183.88.95,179.78.12,537.06.13,715.99.1s179.49-.1,180.4-.45c.9-.35,2.14-.99,3.31-1.71,1.17-.72,2.28-1.52,3.44-3s2.39-3.63,3.11-5.51.96-3.49.87-5.36c-.09-1.87-.51-4-1.28-5.97-.77-1.97-1.89-3.78-3.87-5.81-1.97-2.03-4.8-4.28-13.68-10.15s-23.82-15.36-33.35-20.95c-9.53-5.59-13.63-7.28-18.36-8.62-4.73-1.33-10.07-2.31-15.4-2.9-5.33-.59-10.65-.81-16.82-.36-6.17.45-13.21,1.56-20.04,3.39-6.84,1.82-13.48,4.36-18.81,7.05-5.33,2.69-9.35,5.54-14.03,8.71s-10.02,6.66-16.5,10.03c-6.48,3.37-14.11,6.61-22.58,9.68-8.47,3.07-17.8,5.95-25.77,7.91-7.97,1.95-14.59,2.97-22.69,3.57-8.11.61-17.7.81-25.84.62-8.14-.19-14.81-.77-22.03-2.1-7.21-1.32-14.96-3.38-22.3-5.83-7.34-2.45-14.27-5.3-19.72-7.79-5.45-2.48-9.4-4.61-11.38-5.67q-1.98-1.06-31.14-16.7h0Z"/>
      <path class="cls-3" d="m962.78,846.9c-8.93,2.2-17.86,4.4-27.22,6.36s-19.15,3.69-29.46,5.06c-10.31,1.37-21.14,2.38-30.34,3.03-9.2.65-16.77.94-24.86.88-8.09-.07-16.7-.49-25.76-1.61-9.06-1.12-18.56-2.95-25.75-4.77-7.19-1.83-12.06-3.66-21.33-7.94-9.26-4.27-22.92-10.99-51.42-25.85-28.5-14.86-71.85-37.86-109.7-57.96-37.85-20.1-70.18-37.3-87.45-46.82-17.26-9.52-19.44-11.38-21.71-13.61s-4.65-4.83-6.49-7.63c-1.83-2.79-3.13-5.78-4.06-9.11-.93-3.33-1.49-7.02-1.2-10.27.3-3.25,1.45-6.08,2.69-8.74,1.24-2.66,2.58-5.15,4.15-8.16,1.57-3.01,3.37-6.53,4.89-9.58,1.52-3.05,2.77-5.63,3.53-8.98s1.02-7.49,1.28-11.63"/>
      <g class="cls-5">
        <polygon class="cls-1" points="618.3 826.12 628.13 832.9 656.01 792.5 646.18 785.71 618.3 826.12"/>
      </g>
    </g>
  </g>
</svg>