<?xml version="1.0" encoding="UTF-8"?>
<!-- Uploaded to: SVG Find, www.svgfind.com, Generator: SVG Find Mixer Tools -->
<svg fill="#000000" width="800px" height="800px" version="1.1" viewBox="144 144 512 512" xmlns="http://www.w3.org/2000/svg">
 <path d="m613.87 412.39-7.0391-34.754c-0.87109-4.2852-4.6758-7.3945-9.0469-7.3945-1.5898 0-3.1719 0.42188-4.5664 1.2188l-10.848 6.2031c-2.1172 1.2031-4.9297 0.5-6.2344-1.5039l-101.18-155.44c-3.2578-5.0117-7.4453-9.2109-12.449-12.488-5.3867-3.5234-12.711-3.3398-17.914 0.44141l-4.3945 3.1992c-0.91797 0.68359-2.0898 1.2188-3.7305-0.054687l-11.984-9.2578c-2.4453-1.8906-5.375-2.8906-8.457-2.8906-4.6914 0-9.0273 2.3398-11.594 6.2617l-144.34 220.38-4.4414-2.9102 30.156-46.059-14.684 7.0273 0.83594 4.8789-23.316 35.613 8.6758 5.6797-56.727 86.613c-30.332 46.305-6.2383 71.934 5.5234 80.801 2.0469 1.543 4.4805 2.3555 7.0352 2.3555 3.9961 0 7.6914-1.9961 9.8906-5.3438l17.676-26.992c2.3867-3.6484 3.207-8.1758 2.25-12.43l-1.3359-5.9297 29.961 14.676c7.3516 3.5977 16.703 1.0195 21.172-5.8047l65.141-99.453c4.6992-7.1758 11.84-12.379 20.109-14.652l20.402-5.6172c0.57422-0.15625 1.168-0.26953 1.7695-0.33203l12.574-1.2773c7.1055-0.72266 13.523-4.8164 17.184-10.953l14.227-23.887c5.0625-8.5117 14.648-13.535 24.637-12.785l3.4258 0.26172c10.879 0.83594 21.562-2.6875 29.773-9.7031l4.9102-4.1914c3.2266-2.7578 8.1914-3.0781 11.754-0.74609l76.34 50c5.1758 3.3945 12.48 2.1875 16.344-2.543 2.3359-2.8438 3.25-6.5703 2.5117-10.219zm-10.34 3.8125c-0.70703 0.87109-1.9336 1.1562-2.9609 0.48438l-76.34-50.004c-7.2266-4.7305-17.312-4.0898-23.875 1.5156l-4.9102 4.1914c-6.1836 5.2812-14.246 7.9062-22.43 7.3086l-3.4258-0.26172c-13.871-1.0781-27.102 5.9219-34.109 17.699l-14.227 23.887c-2.0234 3.3945-5.5742 5.6641-9.5117 6.0625l-12.57 1.2773c-1.1602 0.11719-2.3203 0.33203-3.4414 0.64453l-20.398 5.6133c-10.645 2.9297-19.84 9.6289-25.895 18.871l-65.137 99.453c-1.7344 2.6562-5.3633 3.6719-8.2461 2.2617l-32.574-15.957c-3.6094-1.7656-8.1797-0.71875-10.672 2.4023-1.6602 2.0703-2.2734 4.7539-1.6875 7.3555l1.9727 8.7656c0.35938 1.5898 0.050781 3.2891-0.84375 4.6562l-17.672 26.984c-0.50781 0.77344-1.6172 1.0078-2.3633 0.45703-11.785-8.8867-27.871-29.43-3.1445-67.172l203.84-311.22c0.6875-1.0547 1.8555-1.6797 3.1172-1.6797 0.57812 0 1.4375 0.13672 2.2695 0.77734l11.984 9.2539c4.5273 3.5039 11.246 3.6016 15.883 0.22656l4.3945-3.1992c1.8594-1.3555 4.4844-1.4219 6.4062-0.16016 3.8203 2.5039 7.0195 5.7109 9.5117 9.5391l101.18 155.44c2.7383 4.2109 7.375 6.7227 12.402 6.7227 2.5664 0 5.1016-0.67578 7.3359-1.9531l9.7383-5.7031 6.8125 33.648c0.14453 0.69922 0 1.3047-0.41406 1.8125z"/>
</svg>