<?xml version="1.0" encoding="UTF-8"?>
<!-- Uploaded to: SVG Find, www.svgfind.com, Generator: SVG Find Mixer Tools -->
<svg fill="#000000" width="800px" height="800px" version="1.1" viewBox="144 144 512 512" xmlns="http://www.w3.org/2000/svg">
 <path d="m606.61 362.59c-5.7617-8.3086-14.77-12.883-25.355-12.883-10.52 0-22.238 4.6797-28.492 11.379-2.9531 3.1602-4.3945 6.5508-4.1719 9.8008 0.38281 5.6016 4.0977 11.793 11.043 18.41 0.57813 0.54688 0.55859 1.1875 0.49219 1.5234-0.058594 0.32813-0.27344 0.91797-0.99609 1.2109l-140.1 56.785c-3.6602 1.4766-8.0039 0.80859-11.066-1.6797-4.8945-3.9727-10.031-8.8281-15.266-14.422-1.8438-1.9766-1.4648-4.1992-1.2148-5.0625 0.25391-0.87891 1.1289-3 3.8008-3.7031 1.5742-0.41406 3.1875-0.8125 4.832-1.2188 8.7031-2.1523 18.562-4.5977 29.41-10.781 22.234-12.676 14.953-35.043 12.418-42.832-2.5547-7.8828-8.3086-11.695-20.91-20.059l-6.168-4.0781c-12.164-7.9883-20.203-13.262-23.535-29.461-3.4922-16.926 4.7461-34.785 19.164-41.539 6.6328-3.1094 15.484-6.2969 25.734-9.9844 14.5-5.2188 30.926-11.133 48.293-19.289 19.066-8.9609 26.805-19.777 29.945-27.273 1.3008-3.1133 0.96484-6.6406-0.89453-9.4375-2.0586-3.0859-5.6367-4.7852-9.375-4.375-16.184 1.7812-51.523 6.8984-71.152 9.7891-7.418 1.0938-14.453 3.543-20.914 7.2852-20.004 11.586-61.898 37.934-78.988 48.719-3.7969 2.4023-8.6016 2.9297-12.836 1.3867-4.6133-1.6758-8.5234-3.4609-11.609-5.293-3.0273-1.8047-4.8906-4.0273-5.3906-6.4219-0.4375-2.1172 0.1875-4.4805 1.7617-6.6523 0.95313-1.3164 1.7344-1.4258 2.3906-1.4258 2.1211 0 4.9492 1.707 6.168 2.4375l0.59766 0.36719c2.7227 1.6797 7.7891 4.8086 13.582 4.8047 4.1328 0 9.9062-1.6094 13.949-9.2852 3.3164-6.293 3.2578-13.762-0.16016-20.488-4.6406-9.1406-14.543-15.648-26.492-17.414-11.605-1.707-24.707 3.3711-33.719 13.023-6.7969 7.2773-10.371 16.188-9.8086 24.441l8.1797 119.43-4.7383 0.32812-3.0039-43.672-0.80078-11.66-7.5156 14.578 3.6406 3.4102 2.9453 42.785 9.8242-0.67578 10.023 146.36c0.050782 0.72266-0.35937 1.418-1.0156 1.7266l-85.246 40.062-1.2383 0.80859c-4.4727 4.0156-9.5664 10.406-15.145 19-1.9844 3.0469-2.1406 6.7539-0.42188 9.9219 1.7227 3.1758 5 5.1484 8.5469 5.1484 1.3281 0 2.6406-0.27344 3.8945-0.8125 61.633-26.551 369.99-159.38 387.48-166.98 11.875-5.1641 21.605-16.668 25.402-30.02 3.6016-12.684 1.5469-25.484-5.7773-36.039zm-4.0391 33.25c-2.9844 10.488-10.516 19.477-19.652 23.453-17.348 7.543-321.27 138.46-386.04 166.36 4.4609-6.75 8.6016-11.969 12.039-15.199l84.547-39.727c4.5078-2.1172 7.1953-6.6953 6.8594-11.656l-18.555-270.88c-0.375-5.4453 2.207-11.562 7.082-16.781 6.7617-7.2383 16.184-11.148 24.777-9.8945 8.6758 1.2812 15.734 5.7422 18.883 11.938 1.9258 3.793 2.0078 7.7422 0.23047 11.117-2.0234 3.8398-4.0547 3.8398-4.9258 3.8398-2.8984 0.003906-6.3633-2.1367-8.2227-3.2891l-0.69141-0.42188c-1.9375-1.168-6.4766-3.9023-11.43-3.9023-4.2969 0-7.9844 1.9531-10.66 5.6484-3.2656 4.5195-4.5078 9.7383-3.4805 14.691 0.75781 3.6797 3.1367 8.9414 10.156 13.125 3.6406 2.168 8.1328 4.2266 13.348 6.1172 7.1484 2.5938 15.32 1.7148 21.766-2.3477 17.035-10.762 58.801-37.023 78.648-48.52 5.3398-3.0898 11.156-5.1172 17.289-6.0234 19.559-2.8828 54.762-7.9766 70.523-10.008-2.4414 5.8438-8.7422 14.395-24.867 21.973-16.934 7.957-33.121 13.785-47.406 18.926-10.488 3.7773-19.547 7.0391-26.617 10.352-18.871 8.8438-29.312 31.062-24.824 52.836 4.1875 20.34 15.191 27.562 27.926 35.926l6.1211 4.0508c11.695 7.7578 15.461 10.414 16.992 15.152 3.5156 10.789 5.3203 22.832-7.9102 30.375-9.6211 5.4844-18.359 7.6484-26.812 9.7422-1.6992 0.42188-3.3555 0.83203-4.9805 1.2617-5.3555 1.4102-9.4688 5.4258-11.004 10.734-1.5234 5.2852-0.1875 10.836 3.5664 14.855 5.5547 5.9336 11.031 11.109 16.285 15.379 5.9141 4.7891 14.285 6.0586 21.332 3.2109l140.09-56.785c3.7461-1.5195 6.4297-4.793 7.1836-8.7617 0.75781-3.9805-0.54688-8.0195-3.4805-10.812-6.8516-6.5273-7.8047-10.367-7.8945-11.648 0.27344-2.5 9.9922-10.352 22.488-10.352 7.3555 0 13.062 2.8594 16.98 8.4961 5.5508 8.0078 7.0898 17.75 4.3359 27.441z"/>
</svg>