<?xml version="1.0" encoding="UTF-8"?>
<!-- Uploaded to: SVG Find, www.svgfind.com, Generator: SVG Find Mixer Tools -->
<svg fill="#000000" width="800px" height="800px" version="1.1" viewBox="144 144 512 512" xmlns="http://www.w3.org/2000/svg">
 <path d="m607.68 335.39c-0.92578-11.141-10.496-19.867-21.789-19.867-1.875 0-3.75 0.24219-5.582 0.71875l-3.0938 0.80859c-0.97266 0.26172-2.2305-0.25781-2.5078-1.5391-9.2539-42.535-12.199-61.109-11.914-64.098 0.23047-2.3281 1.0977-9.1953 3.9102-28.723 2.125-14.676-5.9688-28.883-19.676-34.551-8.4844-3.5039-18.422-2.9219-26.453 1.5586l-183.26 102.42c-2.7383 1.5234-5.9336 2.1797-9.0156 1.8906l-20.266-1.9609c-8.5703-0.84766-16.789 2.4297-22.461 8.6602-5.0742 5.5742-7.5781 13.082-6.8711 20.594l1.2227 12.984c0.60547 6.4453-2.3008 12.773-7.582 16.512l-14.566 10.301c-10.633 7.5273-16.043 20.207-14.117 33.09l0.10547 0.70703c0.66016 4.4531-0.074219 8.9219-2.1328 12.922l-28.262 54.898-19.934 61.973c-4.2383 13.199 1.9648 27.738 14.426 33.82l100.16 48.863c9.0273 4.4062 19.062 6.7383 29.012 6.7383 3.5938 0 7.2109-0.30078 10.746-0.89453l0.51172-0.085937c7.6641-1.3398 15.109-4.0625 22.145-8.0977l28.766-16.512c5.5977-3.2109 9.5391-8.6836 10.816-15.012 1.2734-6.3242-0.24219-12.898-4.1523-18.027l-1.1016-1.4492c-3.1602-4.1289-7.9492-6.4961-13.148-6.4961-5.0859 0-9.8125 2.2891-12.965 6.2812l-9.918 12.547c-3.0195 3.8281-7.8047 5.8164-12.676 5.2305-5.5742-0.67187-10.203-4.5859-11.785-9.9727l-47.152-160.54c-0.70703-2.418-1.1094-4.9258-1.1875-7.4609l-0.085938-2.8672c-0.24609-8.1484 2.8672-16.078 8.5469-21.754 7.3359-7.3359 14.402-11.652 19.039-13.984 0.81641-0.40234 2.1328-0.12109 2.207 1.2383 0.35547 6.2539-1.3047 13.789-4.793 21.777-1.9727 4.5039-1.5508 9.6445 1.1328 13.742 2.8867 4.418 7.8594 6.9297 13.223 6.4648l52.188-4.2891c12.211-1.0039 24.031 3.3633 32.645 11.977l10.605 10.605c6.168 6.1719 14.371 9.5664 23.098 9.5664 4.1953 0 8.3047-0.79688 12.207-2.3711 21.344-8.6094 66.867-26.945 97.633-39.18l1.8164 4.5898-40.98 16.215-10.941 4.3281 16.277 2.7617 2.1602-4.5352 40.152-15.887-3.707-9.3672c5.9805-2.3711 11.32-4.4805 15.531-6.1211 16.988-6.6367 25.441-21.25 23.789-41.148zm-27.531 31.578c-25.824 10.078-91.156 36.395-118.04 47.242-8.2227 3.3203-17.938 1.3359-24.199-4.9336l-10.605-10.605c-10.75-10.75-25.52-16.227-40.75-14.949l-52.562 4.3008c-1.9766 0-3.043-1.3047-3.4102-1.8672-0.375-0.57031-1.1523-2.1016-0.32031-4.0078 4.1953-9.5977 6.0938-18.504 5.6367-26.473-0.35156-6.2227-5.5195-11.098-11.766-11.098-1.8516 0-3.6367 0.42578-5.3047 1.2656-5.3125 2.6719-13.383 7.5977-21.688 15.902-7.6719 7.6719-11.879 18.355-11.547 29.328l0.085937 2.8672c0.10547 3.4102 0.64844 6.7891 1.5977 10.043l47.152 160.54c2.7422 9.332 10.758 16.113 20.414 17.273 8.5156 1.0234 16.723-2.4375 21.953-9.0547l9.9258-12.551c2.418-3.0547 7.5352-3 9.8828 0.082032l1.1016 1.4453c2.1211 2.7812 2.9453 6.3438 2.25 9.7734-0.69141 3.4258-2.8281 6.3906-5.8633 8.1328l-28.766 16.512c-5.9922 3.4375-12.316 5.7539-19.246 6.9609-11.219 1.8906-23.156 0.12891-33.547-4.9414l-100.16-48.867c-7.9023-3.8555-11.84-13.078-9.1523-21.453l19.477-60.789 28.066-54.52c3.0547-5.9219 4.1484-12.539 3.1641-19.137l-0.10547-0.71094c-1.3555-9.0273 2.4375-17.914 9.8906-23.191l14.562-10.301c8.2773-5.8555 12.828-15.766 11.875-25.859l-1.2227-12.984c-0.44141-4.707 1.0664-9.2227 4.2461-12.719 3.5039-3.8555 8.6016-5.8555 13.871-5.3516l20.266 1.9609c0.82812 0.082031 1.6562 0.12109 2.4766 0.12109 4.3789 0 8.7109-1.1289 12.543-3.2656l183.26-102.42c5.3164-2.9727 11.895-3.3594 17.52-1.0312 9.3633 3.8672 14.887 13.57 13.434 23.59-2.2812 15.824-3.6172 25.637-3.9648 29.164-0.53125 5.3047 3.5352 27.949 12.094 67.301 1.4453 6.6484 8.5508 11 15.145 9.293l3.0938-0.80859c6.8906-1.8008 13.969 3.2266 14.539 10.059 1.2773 15.418-4.543 25.754-17.297 30.734z"/>
</svg>